<mxfile host="app.diagrams.net" agent="Mozilla/5.0 (Windows NT 10.0; Win64; x64) AppleWebKit/537.36 (KHTML, like Gecko) Chrome/137.0.0.0 Safari/537.36" version="27.1.6" pages="2">
  <diagram name="Страница — 1" id="BDMmKNMVQ6On5iuS-EOb">
    <mxGraphModel dx="1043" dy="667" grid="1" gridSize="10" guides="1" tooltips="1" connect="1" arrows="1" fold="1" page="1" pageScale="1" pageWidth="827" pageHeight="1169" math="0" shadow="0">
      <root>
        <mxCell id="0" />
        <mxCell id="1" parent="0" />
        <mxCell id="mi2LoP6UA7UgKNXL9F8Z-26" value="" style="rounded=1;whiteSpace=wrap;html=1;" vertex="1" parent="1">
          <mxGeometry x="93" y="531" width="367" height="226" as="geometry" />
        </mxCell>
        <mxCell id="mi2LoP6UA7UgKNXL9F8Z-22" value="" style="rounded=1;whiteSpace=wrap;html=1;" vertex="1" parent="1">
          <mxGeometry x="90" y="160" width="360" height="270" as="geometry" />
        </mxCell>
        <mxCell id="mi2LoP6UA7UgKNXL9F8Z-13" value="" style="rounded=1;whiteSpace=wrap;html=1;" vertex="1" parent="1">
          <mxGeometry x="121" y="181.75" width="121" height="144" as="geometry" />
        </mxCell>
        <mxCell id="mi2LoP6UA7UgKNXL9F8Z-1" value="" style="sketch=0;points=[[0.5,0,0],[1,0.5,0],[0.5,1,0],[0,0.5,0],[0.145,0.145,0],[0.8555,0.145,0],[0.855,0.8555,0],[0.145,0.855,0]];verticalLabelPosition=bottom;html=1;verticalAlign=top;aspect=fixed;align=center;pointerEvents=1;shape=mxgraph.cisco19.rect;prIcon=router;fillColor=#FAFAFA;strokeColor=#005073;" vertex="1" parent="1">
          <mxGeometry x="363.5" y="225.75" width="50" height="50" as="geometry" />
        </mxCell>
        <mxCell id="mi2LoP6UA7UgKNXL9F8Z-2" value="" style="sketch=0;points=[[0.015,0.015,0],[0.985,0.015,0],[0.985,0.985,0],[0.015,0.985,0],[0.25,0,0],[0.5,0,0],[0.75,0,0],[1,0.25,0],[1,0.5,0],[1,0.75,0],[0.75,1,0],[0.5,1,0],[0.25,1,0],[0,0.75,0],[0,0.5,0],[0,0.25,0]];verticalLabelPosition=bottom;html=1;verticalAlign=top;aspect=fixed;align=center;pointerEvents=1;shape=mxgraph.cisco19.rect;prIcon=l2_switch;fillColor=#FAFAFA;strokeColor=#005073;" vertex="1" parent="1">
          <mxGeometry x="260" y="225.75" width="50" height="50" as="geometry" />
        </mxCell>
        <mxCell id="mi2LoP6UA7UgKNXL9F8Z-3" value="" style="sketch=0;points=[[0.015,0.015,0],[0.985,0.015,0],[0.985,0.985,0],[0.015,0.985,0],[0.25,0,0],[0.5,0,0],[0.75,0,0],[1,0.25,0],[1,0.5,0],[1,0.75,0],[0.75,1,0],[0.5,1,0],[0.25,1,0],[0,0.75,0],[0,0.5,0],[0,0.25,0]];verticalLabelPosition=bottom;html=1;verticalAlign=top;aspect=fixed;align=center;pointerEvents=1;shape=mxgraph.cisco19.rect;prIcon=l2_switch;fillColor=#FAFAFA;strokeColor=#005073;" vertex="1" parent="1">
          <mxGeometry x="150" y="360" width="50" height="50" as="geometry" />
        </mxCell>
        <mxCell id="mi2LoP6UA7UgKNXL9F8Z-4" value="DRC" style="rounded=1;whiteSpace=wrap;html=1;" vertex="1" parent="1">
          <mxGeometry x="140" y="200" width="70" height="31.5" as="geometry" />
        </mxCell>
        <mxCell id="mi2LoP6UA7UgKNXL9F8Z-5" value="Omnia" style="rounded=1;whiteSpace=wrap;html=1;" vertex="1" parent="1">
          <mxGeometry x="140" y="280" width="70" height="30" as="geometry" />
        </mxCell>
        <mxCell id="mi2LoP6UA7UgKNXL9F8Z-6" value="" style="image;aspect=fixed;perimeter=ellipsePerimeter;html=1;align=center;shadow=0;dashed=0;spacingTop=3;image=img/lib/active_directory/internet_cloud.svg;" vertex="1" parent="1">
          <mxGeometry x="470" y="220" width="97.62" height="61.5" as="geometry" />
        </mxCell>
        <mxCell id="mi2LoP6UA7UgKNXL9F8Z-7" value="" style="endArrow=none;html=1;rounded=0;entryX=0;entryY=0.5;entryDx=0;entryDy=0;exitX=1;exitY=0.5;exitDx=0;exitDy=0;exitPerimeter=0;" edge="1" parent="1" source="mi2LoP6UA7UgKNXL9F8Z-1" target="mi2LoP6UA7UgKNXL9F8Z-6">
          <mxGeometry width="50" height="50" relative="1" as="geometry">
            <mxPoint x="500" y="505.75" as="sourcePoint" />
            <mxPoint x="550" y="455.75" as="targetPoint" />
          </mxGeometry>
        </mxCell>
        <mxCell id="mi2LoP6UA7UgKNXL9F8Z-8" value="" style="endArrow=none;html=1;rounded=0;entryX=0;entryY=0.5;entryDx=0;entryDy=0;entryPerimeter=0;exitX=1;exitY=0.5;exitDx=0;exitDy=0;exitPerimeter=0;" edge="1" parent="1" source="mi2LoP6UA7UgKNXL9F8Z-2" target="mi2LoP6UA7UgKNXL9F8Z-1">
          <mxGeometry width="50" height="50" relative="1" as="geometry">
            <mxPoint x="500" y="505.75" as="sourcePoint" />
            <mxPoint x="550" y="455.75" as="targetPoint" />
          </mxGeometry>
        </mxCell>
        <mxCell id="mi2LoP6UA7UgKNXL9F8Z-9" value="" style="endArrow=none;html=1;rounded=0;entryX=0;entryY=0.25;entryDx=0;entryDy=0;entryPerimeter=0;exitX=1;exitY=0.75;exitDx=0;exitDy=0;" edge="1" parent="1" source="mi2LoP6UA7UgKNXL9F8Z-4" target="mi2LoP6UA7UgKNXL9F8Z-2">
          <mxGeometry width="50" height="50" relative="1" as="geometry">
            <mxPoint x="230" y="210" as="sourcePoint" />
            <mxPoint x="280" y="160" as="targetPoint" />
          </mxGeometry>
        </mxCell>
        <mxCell id="mi2LoP6UA7UgKNXL9F8Z-11" value="" style="endArrow=none;html=1;rounded=0;entryX=0;entryY=0.75;entryDx=0;entryDy=0;entryPerimeter=0;exitX=1;exitY=0.25;exitDx=0;exitDy=0;" edge="1" parent="1" source="mi2LoP6UA7UgKNXL9F8Z-5" target="mi2LoP6UA7UgKNXL9F8Z-2">
          <mxGeometry width="50" height="50" relative="1" as="geometry">
            <mxPoint x="500" y="500" as="sourcePoint" />
            <mxPoint x="550" y="450" as="targetPoint" />
          </mxGeometry>
        </mxCell>
        <mxCell id="mi2LoP6UA7UgKNXL9F8Z-12" value="" style="endArrow=none;html=1;rounded=0;entryX=0.5;entryY=1;entryDx=0;entryDy=0;exitX=0.5;exitY=0;exitDx=0;exitDy=0;exitPerimeter=0;fillColor=#0050ef;strokeColor=#001DBC;dashed=1;" edge="1" parent="1" source="mi2LoP6UA7UgKNXL9F8Z-3" target="mi2LoP6UA7UgKNXL9F8Z-5">
          <mxGeometry width="50" height="50" relative="1" as="geometry">
            <mxPoint x="500" y="500" as="sourcePoint" />
            <mxPoint x="550" y="450" as="targetPoint" />
          </mxGeometry>
        </mxCell>
        <mxCell id="mi2LoP6UA7UgKNXL9F8Z-17" value="x3&amp;nbsp;" style="text;html=1;align=center;verticalAlign=middle;whiteSpace=wrap;rounded=0;" vertex="1" parent="1">
          <mxGeometry x="213" y="294" width="30" height="20" as="geometry" />
        </mxCell>
        <mxCell id="mi2LoP6UA7UgKNXL9F8Z-19" value="" style="endArrow=none;html=1;rounded=0;entryX=0.5;entryY=1;entryDx=0;entryDy=0;entryPerimeter=0;" edge="1" parent="1" source="mi2LoP6UA7UgKNXL9F8Z-20" target="mi2LoP6UA7UgKNXL9F8Z-3">
          <mxGeometry width="50" height="50" relative="1" as="geometry">
            <mxPoint x="175" y="570" as="sourcePoint" />
            <mxPoint x="550" y="450" as="targetPoint" />
          </mxGeometry>
        </mxCell>
        <mxCell id="mi2LoP6UA7UgKNXL9F8Z-23" value="Ольгино/Павлово" style="text;html=1;align=center;verticalAlign=middle;whiteSpace=wrap;rounded=0;" vertex="1" parent="1">
          <mxGeometry x="340" y="370" width="60" height="30" as="geometry" />
        </mxCell>
        <mxCell id="mi2LoP6UA7UgKNXL9F8Z-25" value="" style="endArrow=none;html=1;rounded=0;entryX=0.145;entryY=0.855;entryDx=0;entryDy=0;entryPerimeter=0;exitX=1;exitY=0.5;exitDx=0;exitDy=0;exitPerimeter=0;" edge="1" parent="1" source="mi2LoP6UA7UgKNXL9F8Z-3" target="mi2LoP6UA7UgKNXL9F8Z-1">
          <mxGeometry width="50" height="50" relative="1" as="geometry">
            <mxPoint x="500" y="500" as="sourcePoint" />
            <mxPoint x="550" y="450" as="targetPoint" />
          </mxGeometry>
        </mxCell>
        <mxCell id="mi2LoP6UA7UgKNXL9F8Z-27" value="" style="endArrow=none;html=1;rounded=0;entryX=0.5;entryY=1;entryDx=0;entryDy=0;entryPerimeter=0;" edge="1" parent="1" target="mi2LoP6UA7UgKNXL9F8Z-20">
          <mxGeometry width="50" height="50" relative="1" as="geometry">
            <mxPoint x="175" y="570" as="sourcePoint" />
            <mxPoint x="175" y="410" as="targetPoint" />
          </mxGeometry>
        </mxCell>
        <mxCell id="mi2LoP6UA7UgKNXL9F8Z-20" value="" style="sketch=0;points=[[0.015,0.015,0],[0.985,0.015,0],[0.985,0.985,0],[0.015,0.985,0],[0.25,0,0],[0.5,0,0],[0.75,0,0],[1,0.25,0],[1,0.5,0],[1,0.75,0],[0.75,1,0],[0.5,1,0],[0.25,1,0],[0,0.75,0],[0,0.5,0],[0,0.25,0]];verticalLabelPosition=bottom;html=1;verticalAlign=top;aspect=fixed;align=center;pointerEvents=1;shape=mxgraph.cisco19.rect;prIcon=l2_switch;fillColor=#FAFAFA;strokeColor=#005073;" vertex="1" parent="1">
          <mxGeometry x="150" y="550" width="50" height="50" as="geometry" />
        </mxCell>
        <mxCell id="mi2LoP6UA7UgKNXL9F8Z-28" value="Инженерная" style="text;html=1;align=center;verticalAlign=middle;whiteSpace=wrap;rounded=0;" vertex="1" parent="1">
          <mxGeometry x="346" y="698" width="60" height="30" as="geometry" />
        </mxCell>
        <mxCell id="mi2LoP6UA7UgKNXL9F8Z-29" value="" style="sketch=0;points=[[0.5,0,0],[1,0.5,0],[0.5,1,0],[0,0.5,0],[0.145,0.145,0],[0.8555,0.145,0],[0.855,0.8555,0],[0.145,0.855,0]];verticalLabelPosition=bottom;html=1;verticalAlign=top;aspect=fixed;align=center;pointerEvents=1;shape=mxgraph.cisco19.rect;prIcon=router;fillColor=#FAFAFA;strokeColor=#005073;" vertex="1" parent="1">
          <mxGeometry x="364" y="550" width="50" height="50" as="geometry" />
        </mxCell>
        <mxCell id="mi2LoP6UA7UgKNXL9F8Z-30" value="" style="endArrow=none;html=1;rounded=0;entryX=0;entryY=0.5;entryDx=0;entryDy=0;entryPerimeter=0;exitX=1;exitY=0.5;exitDx=0;exitDy=0;exitPerimeter=0;" edge="1" parent="1" source="mi2LoP6UA7UgKNXL9F8Z-20" target="mi2LoP6UA7UgKNXL9F8Z-29">
          <mxGeometry width="50" height="50" relative="1" as="geometry">
            <mxPoint x="210" y="690" as="sourcePoint" />
            <mxPoint x="264" y="690" as="targetPoint" />
          </mxGeometry>
        </mxCell>
        <mxCell id="mi2LoP6UA7UgKNXL9F8Z-31" value="" style="image;aspect=fixed;perimeter=ellipsePerimeter;html=1;align=center;shadow=0;dashed=0;spacingTop=3;image=img/lib/active_directory/internet_cloud.svg;" vertex="1" parent="1">
          <mxGeometry x="470" y="544.25" width="97.62" height="61.5" as="geometry" />
        </mxCell>
        <mxCell id="mi2LoP6UA7UgKNXL9F8Z-33" value="" style="endArrow=none;html=1;rounded=0;entryX=0;entryY=0.5;entryDx=0;entryDy=0;exitX=1;exitY=0.5;exitDx=0;exitDy=0;exitPerimeter=0;" edge="1" parent="1" source="mi2LoP6UA7UgKNXL9F8Z-29" target="mi2LoP6UA7UgKNXL9F8Z-31">
          <mxGeometry width="50" height="50" relative="1" as="geometry">
            <mxPoint x="500" y="500" as="sourcePoint" />
            <mxPoint x="550" y="450" as="targetPoint" />
          </mxGeometry>
        </mxCell>
        <mxCell id="mi2LoP6UA7UgKNXL9F8Z-36" value="8 минимум" style="text;html=1;align=center;verticalAlign=middle;whiteSpace=wrap;rounded=0;" vertex="1" parent="1">
          <mxGeometry x="255" y="181.75" width="60" height="30" as="geometry" />
        </mxCell>
        <mxCell id="mi2LoP6UA7UgKNXL9F8Z-37" value="5 минимум 2 ноды + 3 Omnia&amp;nbsp;&lt;div&gt;&lt;br&gt;&lt;div&gt;&lt;br&gt;&lt;/div&gt;&lt;/div&gt;" style="text;html=1;align=center;verticalAlign=middle;resizable=0;points=[];autosize=1;strokeColor=none;fillColor=none;" vertex="1" parent="1">
          <mxGeometry x="510" y="370" width="190" height="60" as="geometry" />
        </mxCell>
        <mxCell id="mi2LoP6UA7UgKNXL9F8Z-39" value="3 хвоста от DRC +3 от Omnia + 2 аплинка&amp;nbsp;&lt;div&gt;&lt;span style=&quot;background-color: transparent; color: light-dark(rgb(0, 0, 0), rgb(255, 255, 255));&quot;&gt;&amp;nbsp;&lt;/span&gt;&lt;/div&gt;" style="text;html=1;align=center;verticalAlign=middle;whiteSpace=wrap;rounded=0;" vertex="1" parent="1">
          <mxGeometry x="500" y="410" width="210" height="40" as="geometry" />
        </mxCell>
        <mxCell id="mi2LoP6UA7UgKNXL9F8Z-40" value="3+3 +2 +5&amp;nbsp; = 13&amp;nbsp;" style="text;html=1;align=center;verticalAlign=middle;whiteSpace=wrap;rounded=0;" vertex="1" parent="1">
          <mxGeometry x="575" y="480" width="60" height="30" as="geometry" />
        </mxCell>
      </root>
    </mxGraphModel>
  </diagram>
  <diagram id="K_QWz5y1Vfb9RZmCzqKb" name="Страница — 2">
    <mxGraphModel dx="1251" dy="800" grid="1" gridSize="10" guides="1" tooltips="1" connect="1" arrows="1" fold="1" page="1" pageScale="1" pageWidth="827" pageHeight="1169" math="0" shadow="0">
      <root>
        <mxCell id="0" />
        <mxCell id="1" parent="0" />
      </root>
    </mxGraphModel>
  </diagram>
</mxfile>
